# xmcd
#
# Track frame offsets:
#	150
#	12291
#	24947
#	37955
#	50893
#	64383
#	77579
#	88821
#	101566
#	114765
#	125965
#	137782
#
# Disc length: 1978 seconds
#
# Revision: 0
# Processed by: cddbd v1.5.1PL2 Copyright (c) Steve Scherf et al.
# Submitted via: dBpowerAMP V4.0
#
DISCID=9f07b80c
DTITLE=Clint Eastwood - Sings Cowboy Favorites
DYEAR=1962
DGENRE=Country
TTITLE0=Bouquet Of Roses
TTITLE1=Santa Fe Trail
TTITLE2=The Round-Up
TTITLE3=Sierra Nevada
TTITLE4=Mexicali Rose
TTITLE5=Searching For Someone To Love
TTITLE6=I'll Love You More
TTITLE7=Tumbling Tumbleweeds
TTITLE8=Twilight On The Trail
TTITLE9=San Antonio Rose
TTITLE10=Don't Fence Me In
TTITLE11=Are You Satisfied
EXTD=
EXTT0=
EXTT1=
EXTT2=
EXTT3=
EXTT4=
EXTT5=
EXTT6=
EXTT7=
EXTT8=
EXTT9=
EXTT10=
EXTT11=
PLAYORDER=
